REM DIRINDEX 1\2,1\3,1\4,1\6,1\5\7,1\5\8
REM DIRNAME folder01,folder02,folder03,folder04,folder05,folder06,folder07,folder08
TITLE ""
FILE "DB4500_5th_4B_36.mp3" MP3
  TRACK 01 AUDIO
    TITLE "0:"
    INDEX 01 00:00:00
  TRACK 02 AUDIO
    TITLE "2:cjc114_2912"
    INDEX 01 00:00:01
  TRACK 03 AUDIO
    TITLE "0:"
    INDEX 01 00:00:72
  TRACK 04 AUDIO
    TITLE "3:cjc114_2913"
    INDEX 01 00:01:21
  TRACK 05 AUDIO
    TITLE "0:"
    INDEX 01 00:02:30
  TRACK 06 AUDIO
    TITLE "4:cjc114_2914"
    INDEX 01 00:02:51
  TRACK 07 AUDIO
    TITLE "0:"
    INDEX 01 00:05:50
  TRACK 08 AUDIO
    TITLE "2:cjc114_2915"
    INDEX 01 00:06:24
  TRACK 09 AUDIO
    TITLE "0:"
    INDEX 01 00:07:41
  TRACK 10 AUDIO
    TITLE "3:cjc114_2916"
    INDEX 01 00:07:66
  TRACK 11 AUDIO
    TITLE "0:"
    INDEX 01 00:09:22
  TRACK 12 AUDIO
    TITLE "4:cjc114_2917"
    INDEX 01 00:09:47
  TRACK 13 AUDIO
    TITLE "0:"
    INDEX 01 00:12:01
  TRACK 14 AUDIO
    TITLE "2:cjc114_2918"
    INDEX 01 00:12:50
  TRACK 15 AUDIO
    TITLE "0:"
    INDEX 01 00:13:51
  TRACK 16 AUDIO
    TITLE "3:cjc114_2919"
    INDEX 01 00:14:02
  TRACK 17 AUDIO
    TITLE "0:"
    INDEX 01 00:15:30
  TRACK 18 AUDIO
    TITLE "4:cjc114_2920"
    INDEX 01 00:15:58
  TRACK 19 AUDIO
    TITLE "0:"
    INDEX 01 00:19:46
  TRACK 20 AUDIO
    TITLE "2:cjc114_2921"
    INDEX 01 00:20:20
  TRACK 21 AUDIO
    TITLE "0:"
    INDEX 01 00:21:17
  TRACK 22 AUDIO
    TITLE "3:cjc114_2922"
    INDEX 01 00:21:41
  TRACK 23 AUDIO
    TITLE "0:"
    INDEX 01 00:23:26
  TRACK 24 AUDIO
    TITLE "4:cjc114_2923"
    INDEX 01 00:23:50
  TRACK 25 AUDIO
    TITLE "0:"
    INDEX 01 00:28:04
  TRACK 26 AUDIO
    TITLE "2:cjc114_2924"
    INDEX 01 00:28:55
  TRACK 27 AUDIO
    TITLE "0:"
    INDEX 01 00:29:56
  TRACK 28 AUDIO
    TITLE "3:cjc114_2925"
    INDEX 01 00:30:05
  TRACK 29 AUDIO
    TITLE "0:"
    INDEX 01 00:31:14
  TRACK 30 AUDIO
    TITLE "4:cjc114_2926"
    INDEX 01 00:31:33
  TRACK 31 AUDIO
    TITLE "0:"
    INDEX 01 00:36:21
  TRACK 32 AUDIO
    TITLE "2:cjc114_2927"
    INDEX 01 00:36:72
  TRACK 33 AUDIO
    TITLE "0:"
    INDEX 01 00:38:14
  TRACK 34 AUDIO
    TITLE "3:cjc114_2928"
    INDEX 01 00:38:37
  TRACK 35 AUDIO
    TITLE "0:"
    INDEX 01 00:39:43
  TRACK 36 AUDIO
    TITLE "4:cjc114_2929"
    INDEX 01 00:39:66
  TRACK 37 AUDIO
    TITLE "0:"
    INDEX 01 00:42:63
  TRACK 38 AUDIO
    TITLE "2:cjc114_2930"
    INDEX 01 00:43:39
  TRACK 39 AUDIO
    TITLE "0:"
    INDEX 01 00:44:44
  TRACK 40 AUDIO
    TITLE "3:cjc114_2931"
    INDEX 01 00:44:69
  TRACK 41 AUDIO
    TITLE "0:"
    INDEX 01 00:46:09
  TRACK 42 AUDIO
    TITLE "4:cjc114_2932"
    INDEX 01 00:46:35
  TRACK 43 AUDIO
    TITLE "0:"
    INDEX 01 00:48:61
  TRACK 44 AUDIO
    TITLE "2:cjc114_2933"
    INDEX 01 00:49:37
  TRACK 45 AUDIO
    TITLE "0:"
    INDEX 01 00:50:42
  TRACK 46 AUDIO
    TITLE "3:cjc114_2934"
    INDEX 01 00:50:68
  TRACK 47 AUDIO
    TITLE "0:"
    INDEX 01 00:52:00
  TRACK 48 AUDIO
    TITLE "4:cjc114_2935"
    INDEX 01 00:52:26
  TRACK 49 AUDIO
    TITLE "0:"
    INDEX 01 00:55:46
  TRACK 50 AUDIO
    TITLE "2:cjc114_2936"
    INDEX 01 00:56:24
  TRACK 51 AUDIO
    TITLE "0:"
    INDEX 01 00:57:37
  TRACK 52 AUDIO
    TITLE "3:cjc114_2937"
    INDEX 01 00:57:58
  TRACK 53 AUDIO
    TITLE "0:"
    INDEX 01 00:59:12
  TRACK 54 AUDIO
    TITLE "4:cjc114_2938"
    INDEX 01 00:59:38
  TRACK 55 AUDIO
    TITLE "0:"
    INDEX 01 01:03:06
  TRACK 56 AUDIO
    TITLE "2:cjc114_2939"
    INDEX 01 01:03:55
  TRACK 57 AUDIO
    TITLE "0:"
    INDEX 01 01:04:54
  TRACK 58 AUDIO
    TITLE "3:cjc114_2940"
    INDEX 01 01:05:05
  TRACK 59 AUDIO
    TITLE "0:"
    INDEX 01 01:05:73
  TRACK 60 AUDIO
    TITLE "4:cjc114_2941"
    INDEX 01 01:06:24
  TRACK 61 AUDIO
    TITLE "0:"
    INDEX 01 01:09:12
  TRACK 62 AUDIO
    TITLE "2:cjc114_2942"
    INDEX 01 01:09:61
  TRACK 63 AUDIO
    TITLE "0:"
    INDEX 01 01:11:13
  TRACK 64 AUDIO
    TITLE "3:cjc114_2943"
    INDEX 01 01:11:37
  TRACK 65 AUDIO
    TITLE "0:"
    INDEX 01 01:12:66
  TRACK 66 AUDIO
    TITLE "4:cjc114_2944"
    INDEX 01 01:13:16
  TRACK 67 AUDIO
    TITLE "0:"
    INDEX 01 01:17:69
  TRACK 68 AUDIO
    TITLE "2:cjc114_2945"
    INDEX 01 01:18:45
  TRACK 69 AUDIO
    TITLE "0:"
    INDEX 01 01:19:48
  TRACK 70 AUDIO
    TITLE "3:cjc114_2946"
    INDEX 01 01:20:02
  TRACK 71 AUDIO
    TITLE "0:"
    INDEX 01 01:21:29
  TRACK 72 AUDIO
    TITLE "4:cjc114_2947"
    INDEX 01 01:21:57
  TRACK 73 AUDIO
    TITLE "0:"
    INDEX 01 01:25:00
  TRACK 74 AUDIO
    TITLE "2:cjc114_2948"
    INDEX 01 01:25:53
  TRACK 75 AUDIO
    TITLE "0:"
    INDEX 01 01:26:42
  TRACK 76 AUDIO
    TITLE "3:cjc114_2949"
    INDEX 01 01:27:06
  TRACK 77 AUDIO
    TITLE "0:"
    INDEX 01 01:28:55
  TRACK 78 AUDIO
    TITLE "4:cjc114_2950"
    INDEX 01 01:29:07
  TRACK 79 AUDIO
    TITLE "0:"
    INDEX 01 01:32:17
  TRACK 80 AUDIO
    TITLE "2:cjc114_2951"
    INDEX 01 01:32:70
  TRACK 81 AUDIO
    TITLE "0:"
    INDEX 01 01:33:72
  TRACK 82 AUDIO
    TITLE "3:cjc114_2952"
    INDEX 01 01:34:24
  TRACK 83 AUDIO
    TITLE "0:"
    INDEX 01 01:36:27
  TRACK 84 AUDIO
    TITLE "4:cjc114_2953"
    INDEX 01 01:36:54
  TRACK 85 AUDIO
    TITLE "0:"
    INDEX 01 01:39:37
